Coordinates
version=1
nRows=23
nColumns=23
inDegrees=yes

Units are S.I. units (second, meters, Newtons, ...)
Angles are in degrees.

endheader
time	pelvis_tilt	pelvis_list	pelvis_rotation	pelvis_tx	pelvis_ty	pelvis_tz	hip_flexion_r	hip_adduction_r	hip_rotation_r	knee_angle_r	knee_angle_r_beta	ankle_angle_r	subtalar_angle_r	mtp_angle_r	hip_flexion_l	hip_adduction_l	hip_rotation_l	knee_angle_l	knee_angle_l_beta	ankle_angle_l	subtalar_angle_l	mtp_angle_l
    123.00444400	    -16.97789845	     -2.59824423	     -3.88043286	      0.04164000	      1.22700825	      0.25743721	     94.16531156	     -3.29768474	     -2.34303792	    108.98728132	      1.90218690	     13.35938185	      0.00000000	      0.00000000	     44.41091896	     -9.32099510	     -4.00393842	     48.66754464	      0.84940889	      6.36069298	      0.00000000	      0.00000000
    123.01333300	    -17.02790366	     -2.60047266	     -3.79999367	      0.04101367	      1.22717883	      0.25730623	     94.05272700	     -3.38417082	     -2.56791080	    107.22641229	      1.87145394	     13.04387896	      0.00000000	      0.00000000	     45.00304540	     -9.34921524	     -3.64143109	     51.08682633	      0.89163332	      7.23883090	      0.00000000	      0.00000000
    123.02222200	    -17.08493027	     -2.60720611	     -3.68511728	      0.04043517	      1.22724221	      0.25707976	     93.78264130	     -3.52753219	     -2.82261471	    105.33758247	      1.83848764	     12.73526192	      0.00000000	      0.00000000	     45.70201120	     -9.35521791	     -3.25939287	     53.65818002	      0.93651191	      8.16831730	      0.00000000	      0.00000000
    123.03111100	    -17.12877699	     -2.61233258	     -3.55707632	      0.03991333	      1.22724917	      0.25681333	     93.33289991	     -3.69619812	     -3.09757361	    103.32232938	      1.80331484	     12.42909235	      0.00000000	      0.00000000	     46.47301331	     -9.34791719	     -2.86638009	     56.35619984	      0.98360124	      9.13442537	      0.00000000	      0.00000000
    123.04000000	    -17.12412062	     -2.60946515	     -3.42835206	      0.03946809	      1.22727067	      0.25654527	     92.66982542	     -3.86997280	     -3.38155488	    101.18166911	      1.76595327	     12.13867827	      0.00000000	      0.00000000	     47.24889688	     -9.32884456	     -2.48252236	     59.13379923	      1.03207950	     10.11212608	      0.00000000	      0.00000000
    123.04888900	    -17.15417175	     -2.58549556	     -3.25991970	      0.03913596	      1.22710966	      0.25621837	     91.90293649	     -4.10269630	     -3.67074956	     98.95690594	      1.72712383	     11.87075050	      0.00000000	      0.00000000	     48.13188554	     -9.25116139	     -2.07038584	     61.99924400	      1.08209094	     11.13414156	      0.00000000	      0.00000000
    123.05777800	    -17.10955806	     -2.57362698	     -3.08868447	      0.03889884	      1.22702165	      0.25585611	     90.89433782	     -4.35347706	     -4.01083259	     96.61716392	      1.68628762	     11.60665425	      0.00000000	      0.00000000	     48.98529415	     -9.17515779	     -1.66071200	     64.91342330	      1.13295297	     12.17874183	      0.00000000	      0.00000000
    123.06666700	    -17.06632823	     -2.49513079	     -2.89014686	      0.03880622	      1.22682269	      0.25554637	     89.77608302	     -4.62129146	     -4.28472298	     94.22400628	      1.64451914	     11.38566442	      0.00000000	      0.00000000	     49.86466477	     -9.01428621	     -1.27755400	     67.84317211	      1.18408673	     13.19120834	      0.00000000	      0.00000000
    123.07555600	    -17.00428195	     -2.40925054	     -2.66669278	      0.03881950	      1.22659213	      0.25519298	     88.50255060	     -4.92944723	     -4.59326342	     91.75351873	      1.60140100	     11.18047360	      0.00000000	      0.00000000	     50.77189861	     -8.81803959	     -0.88401430	     70.79621501	      1.23562705	     14.21985472	      0.00000000	      0.00000000
    123.08444400	    -16.90939318	     -2.29068671	     -2.41895227	      0.03894842	      1.22634652	      0.25486822	     87.07940220	     -5.26458409	     -4.89936616	     89.22911428	      1.55734183	     11.00454801	      0.00000000	      0.00000000	     51.67651556	     -8.57098195	     -0.50439979	     73.74755612	      1.28713767	     15.22925309	      0.00000000	      0.00000000
    123.09333300	    -16.79891533	     -2.13556092	     -2.14502413	      0.03917474	      1.22607248	      0.25455107	     85.53395297	     -5.62762728	     -5.20107911	     86.65610035	      1.51243427	     10.85371401	      0.00000000	      0.00000000	     52.59615028	     -8.26784088	     -0.14050225	     76.68511696	      1.33840778	     16.21225560	      0.00000000	      0.00000000
    123.10222200	    -16.67311048	     -1.93281915	     -1.84325091	      0.03950747	      1.22576022	      0.25426426	     83.88437520	     -6.01737354	     -5.48048303	     84.05434148	      1.46702501	     10.73351657	      0.00000000	      0.00000000	     53.52908309	     -7.90675802	      0.19175175	     79.60612179	      1.38938893	     17.14364381	      0.00000000	      0.00000000
    123.11111100	    -16.55579384	     -1.76012281	     -1.50737942	      0.03989389	      1.22549367	      0.25397086	     82.11301999	     -6.41952212	     -5.83398025	     81.36608487	      1.42010608	     10.61366568	      0.00000000	      0.00000000	     54.51752782	     -7.53061200	      0.57078734	     82.48047181	      1.43955580	     18.09110828	      0.00000000	      0.00000000
    123.12000000	    -16.42673430	     -1.51626077	     -1.16410893	      0.04032402	      1.22513422	      0.25374044	     80.28283068	     -6.82884123	     -6.14244123	     78.68242220	      1.37326733	     10.51218932	      0.00000000	      0.00000000	     55.53264523	     -7.09739235	      0.88710605	     85.35040230	      1.48964554	     18.95535626	      0.00000000	      0.00000000
    123.12888900	    -16.31560777	     -1.26405637	     -0.80015093	      0.04078770	      1.22479856	      0.25354305	     78.38536409	     -7.23355497	     -6.46058528	     75.94434375	      1.32547885	     10.39400667	      0.00000000	      0.00000000	     56.60367469	     -6.64117620	      1.19814742	     88.15711150	      1.53863185	     19.76090419	      0.00000000	      0.00000000
    123.13777800	    -16.21321272	     -0.99607270	     -0.41598513	      0.04125137	      1.22443825	      0.25337214	     76.44001711	     -7.63666377	     -6.78682261	     73.18903089	      1.27738957	     10.23576784	      0.00000000	      0.00000000	     57.73534050	     -6.15672119	      1.49115966	     90.92017481	      1.58685641	     20.49616278	      0.00000000	      0.00000000
    123.14666700	    -16.15343609	     -0.67432354	     -0.07092190	      0.04168970	      1.22400444	      0.25333371	     74.51593215	     -7.98412608	     -7.04502687	     70.42818992	      1.22920380	     10.05660847	      0.00000000	      0.00000000	     58.94608569	     -5.67600278	      1.69910705	     93.62480538	      1.63406112	     21.17395522	      0.00000000	      0.00000000
    123.15555600	    -16.09691901	     -0.42871325	      0.32656637	      0.04207410	      1.22361527	      0.25319793	     72.52841940	     -8.32859366	     -7.39236244	     67.63596351	      1.18047026	      9.69989130	      0.00000000	      0.00000000	     60.23850335	     -5.19147032	      1.99073637	     96.26701465	      1.68017637	     21.78560881	      0.00000000	      0.00000000
    123.16444400	    -16.10477785	     -0.14242500	      0.65076992	      0.04242959	      1.22316638	      0.25323860	     70.61143996	     -8.57509839	     -7.65162395	     64.85765540	      1.13197963	      9.27787207	      0.00000000	      0.00000000	     61.62961046	     -4.75301686	      2.18496391	     98.82406981	      1.72480540	     22.33872885	      0.00000000	      0.00000000
    123.17333300	    -16.13718789	      0.13344371	      0.98270038	      0.04268776	      1.22274209	      0.25322326	     68.71532380	     -8.80775774	     -7.91958956	     62.08850150	      1.08364878	      8.64965524	      0.00000000	      0.00000000	     63.10141395	     -4.30159057	      2.37056933	    101.27337690	      1.76755387	     22.79672738	      0.00000000	      0.00000000
    123.18222200	    -16.21999642	      0.41105776	      1.24438847	      0.04290712	      1.22230623	      0.25327441	     66.89567036	     -8.95216588	     -8.11843481	     59.36251714	      1.03607138	      7.88027217	      0.00000000	      0.00000000	     64.66599274	     -3.91231777	      2.49713925	    103.62573430	      1.80861025	     23.19758751	      0.00000000	      0.00000000
    123.19111100	    -16.34111223	      0.67420062	      1.44524531	      0.04304862	      1.22185929	      0.25339148	     65.15630034	     -9.00800874	     -8.26059336	     56.69946805	      0.98959240	      6.96069972	      0.00000000	      0.00000000	     66.31246698	     -3.58955179	      2.58195639	    105.86331677	      1.84766343	     23.55816174	      0.00000000	      0.00000000
    123.20000000	    -16.50615222	      0.98677148	      1.54964851	      0.04317633	      1.22142783	      0.25365898	     63.53050277	     -8.98170893	     -8.24270222	     54.13211736	      0.94478368	      6.03524126	      0.00000000	      0.00000000	     68.00547109	     -3.34621980	      2.55617755	    107.95406741	      1.88415392	     23.86267607	      0.00000000	      0.00000000
